<?xml version="1.0" encoding="UTF-8"?>
<!DOCTYPE svg PUBLIC "-//W3C//DTD SVG 1.1//EN" "http://www.w3.org/Graphics/SVG/1.1/DTD/svg11.dtd">
<svg xmlns="http://www.w3.org/2000/svg" version="1.1" width="512px" height="512px" style="shape-rendering:geometricPrecision; text-rendering:geometricPrecision; image-rendering:optimizeQuality; fill-rule:evenodd; clip-rule:evenodd" xmlns:xlink="http://www.w3.org/1999/xlink">
<g><path style="opacity:0.996" fill="#fefffe" d="M 55.5,95.5 C 188.834,95.3333 322.167,95.5 455.5,96C 474.438,102.355 482.272,115.522 479,135.5C 475.833,148 468,155.833 455.5,159C 322.167,159.667 188.833,159.667 55.5,159C 36.5615,152.645 28.7282,139.478 32,119.5C 35.349,106.985 43.1824,98.9853 55.5,95.5 Z"/></g>
<g><path style="opacity:0.996" fill="#fefffe" d="M 55.5,223.5 C 188.834,223.333 322.167,223.5 455.5,224C 474.438,230.355 482.272,243.522 479,263.5C 475.833,276 468,283.833 455.5,287C 322.167,287.667 188.833,287.667 55.5,287C 36.5615,280.645 28.7282,267.478 32,247.5C 35.349,234.985 43.1824,226.985 55.5,223.5 Z"/></g>
<g><path style="opacity:0.996" fill="#fefffe" d="M 55.5,351.5 C 188.834,351.333 322.167,351.5 455.5,352C 474.438,358.355 482.272,371.522 479,391.5C 475.833,404 468,411.833 455.5,415C 322.167,415.667 188.833,415.667 55.5,415C 36.5615,408.645 28.7282,395.478 32,375.5C 35.349,362.985 43.1824,354.985 55.5,351.5 Z"/></g>
</svg>
