<?xml version="1.0" encoding="UTF-8"?>
<!DOCTYPE svg PUBLIC "-//W3C//DTD SVG 1.1//EN" "http://www.w3.org/Graphics/SVG/1.1/DTD/svg11.dtd">
<svg xmlns="http://www.w3.org/2000/svg" version="1.1" width="512px" height="512px" style="shape-rendering:geometricPrecision; text-rendering:geometricPrecision; image-rendering:optimizeQuality; fill-rule:evenodd; clip-rule:evenodd" xmlns:xlink="http://www.w3.org/1999/xlink">
<g><path style="opacity:0.987" fill="#000000" d="M 292.5,118.5 C 302.78,116.882 312.113,119.049 320.5,125C 355.302,162.136 390.469,198.97 426,235.5C 431.694,245.532 433.027,256.199 430,267.5C 428.503,271.165 426.503,274.498 424,277.5C 389.135,313.364 354.635,349.53 320.5,386C 308.577,393.849 296.243,394.516 283.5,388C 271.354,378.228 267.187,365.728 271,350.5C 272.641,345.214 275.308,340.547 279,336.5C 294.5,320.333 310,304.167 325.5,288C 251.167,287.667 176.833,287.333 102.5,287C 87.3997,281.978 79.733,271.478 79.5,255.5C 79.733,239.522 87.3997,229.022 102.5,224C 176.833,223.667 251.167,223.333 325.5,223C 309.667,206.5 293.833,190 278,173.5C 267.945,160.175 266.945,146.175 275,131.5C 279.581,125.41 285.415,121.077 292.5,118.5 Z"/></g>
</svg>
