<?xml version="1.0" encoding="UTF-8"?>
<!DOCTYPE svg PUBLIC "-//W3C//DTD SVG 1.1//EN" "http://www.w3.org/Graphics/SVG/1.1/DTD/svg11.dtd">
<svg xmlns="http://www.w3.org/2000/svg" version="1.1" width="512px" height="512px" style="shape-rendering:geometricPrecision; text-rendering:geometricPrecision; image-rendering:optimizeQuality; fill-rule:evenodd; clip-rule:evenodd" xmlns:xlink="http://www.w3.org/1999/xlink">
<g><path style="opacity:0.999" fill="#414042" d="M 11.5,103.5 C 174.914,103.003 338.247,103.503 501.5,105C 502.126,105.75 502.626,106.584 503,107.5C 503.167,156.833 503.333,206.167 503.5,255.5C 503.662,305.582 503.162,355.582 502,405.5C 501.25,406.126 500.416,406.626 499.5,407C 418.167,407.167 336.833,407.333 255.5,407.5C 173.419,407.664 91.4193,407.164 9.5,406C 8.87424,405.25 8.37424,404.416 8,403.5C 7.33333,304.833 7.33333,206.167 8,107.5C 8.68972,105.65 9.85639,104.316 11.5,103.5 Z"/></g>
<g><path style="opacity:1" fill="#fefefe" d="M 23.5,119.5 C 178.167,119.5 332.833,119.5 487.5,119.5C 487.5,210.167 487.5,300.833 487.5,391.5C 332.833,391.5 178.167,391.5 23.5,391.5C 23.5,300.833 23.5,210.167 23.5,119.5 Z"/></g>
<g><path style="opacity:1" fill="#434143" d="M 243.5,167.5 C 297.413,165.936 330.58,191.269 343,243.5C 346.184,282.904 331.017,312.737 297.5,333C 256.719,351.591 220.552,345.091 189,313.5C 166.436,284.885 161.769,253.551 175,219.5C 189.159,190.678 211.992,173.344 243.5,167.5 Z"/></g>
<g><path style="opacity:1" fill="#d2494a" d="M 244.5,183.5 C 282.522,181.416 309.022,197.749 324,232.5C 333.133,268.713 322.3,297.213 291.5,318C 256.256,335.151 225.423,329.317 199,300.5C 179.612,272.471 178.612,243.804 196,214.5C 208.446,198.202 224.613,187.869 244.5,183.5 Z"/></g>
</svg>
