<?xml version="1.0" encoding="UTF-8"?>
<!DOCTYPE svg PUBLIC "-//W3C//DTD SVG 1.1//EN" "http://www.w3.org/Graphics/SVG/1.1/DTD/svg11.dtd">
<svg xmlns="http://www.w3.org/2000/svg" version="1.1" width="512px" height="512px" style="shape-rendering:geometricPrecision; text-rendering:geometricPrecision; image-rendering:optimizeQuality; fill-rule:evenodd; clip-rule:evenodd" xmlns:xlink="http://www.w3.org/1999/xlink">
<g><path style="opacity:0.991" fill="#010101" d="M 55.5,111.5 C 194.247,111.003 332.914,111.503 471.5,113C 472.701,113.903 473.535,115.069 474,116.5C 474.995,214.581 474.662,312.581 473,410.5C 472.5,411 472,411.5 471.5,412C 332.167,412.667 192.833,412.667 53.5,412C 52.6667,411.167 51.8333,410.333 51,409.5C 50.3333,311.5 50.3333,213.5 51,115.5C 52.2499,113.807 53.7499,112.473 55.5,111.5 Z"/></g>
<g><path style="opacity:1" fill="#b85c78" d="M 269.5,126.5 C 269.5,126.167 269.5,125.833 269.5,125.5C 333.167,125.5 396.833,125.5 460.5,125.5C 460.5,134.5 460.5,143.5 460.5,152.5C 460.167,152.5 459.833,152.5 459.5,152.5C 459.5,143.833 459.5,135.167 459.5,126.5C 396.167,126.5 332.833,126.5 269.5,126.5 Z"/></g>
<g><path style="opacity:1" fill="#288de8" d="M 64.5,125.5 C 128.167,125.5 191.833,125.5 255.5,125.5C 255.5,175.833 255.5,226.167 255.5,276.5C 191.833,276.5 128.167,276.5 64.5,276.5C 64.5,226.167 64.5,175.833 64.5,125.5 Z"/></g>
<g><path style="opacity:1" fill="#f87da2" d="M 269.5,126.5 C 332.833,126.5 396.167,126.5 459.5,126.5C 459.5,135.167 459.5,143.833 459.5,152.5C 396.167,152.5 332.833,152.5 269.5,152.5C 269.5,143.833 269.5,135.167 269.5,126.5 Z"/></g>
<g><path style="opacity:1" fill="#8d475c" d="M 269.5,125.5 C 269.5,125.833 269.5,126.167 269.5,126.5C 269.5,135.167 269.5,143.833 269.5,152.5C 332.833,152.5 396.167,152.5 459.5,152.5C 459.833,152.5 460.167,152.5 460.5,152.5C 396.669,153.499 332.669,153.832 268.5,153.5C 268.173,143.985 268.506,134.652 269.5,125.5 Z"/></g>
<g><path style="opacity:1" fill="#f9fcfe" d="M 101.5,153.5 C 110.487,153.161 114.153,157.495 112.5,166.5C 119.34,164.68 123.673,167.013 125.5,173.5C 125.514,175.593 124.848,177.426 123.5,179C 119.974,180.337 116.308,180.837 112.5,180.5C 113.231,185.041 112.231,189.041 109.5,192.5C 106.063,194.078 102.896,193.745 100,191.5C 98.6632,187.974 98.1632,184.308 98.5,180.5C 95.1501,180.665 91.8168,180.498 88.5,180C 83.7324,176.294 83.399,172.294 87.5,168C 91.0257,166.663 94.6924,166.163 98.5,166.5C 97.8392,161.684 98.8392,157.351 101.5,153.5 Z"/></g>
<g><path style="opacity:1" fill="#fcfdfe" d="M 143.5,167.5 C 146.833,167.5 150.167,167.5 153.5,167.5C 153.5,164.5 153.5,161.5 153.5,158.5C 155.21,153.817 158.543,152.317 163.5,154C 164.333,154.833 165.167,155.667 166,156.5C 166.498,159.817 166.665,163.15 166.5,166.5C 171.765,165.571 176.265,166.904 180,170.5C 180.93,173.85 180.097,176.683 177.5,179C 173.974,180.337 170.308,180.837 166.5,180.5C 169.005,189.804 165.671,193.971 156.5,193C 155.667,192.167 154.833,191.333 154,190.5C 153.502,187.183 153.335,183.85 153.5,180.5C 148.151,181.539 143.651,180.205 140,176.5C 138.664,172.438 139.831,169.438 143.5,167.5 Z"/></g>
<g><path style="opacity:1" fill="#f9fcfe" d="M 211.5,153.5 C 220.271,153.309 223.604,157.642 221.5,166.5C 225.308,166.163 228.974,166.663 232.5,168C 235.167,171.667 235.167,175.333 232.5,179C 228.974,180.337 225.308,180.837 221.5,180.5C 221.837,184.308 221.337,187.974 220,191.5C 216.333,194.167 212.667,194.167 209,191.5C 207.663,187.974 207.163,184.308 207.5,180.5C 196.271,182.454 192.604,178.288 196.5,168C 200.026,166.663 203.692,166.163 207.5,166.5C 207.335,163.482 207.502,160.482 208,157.5C 208.69,155.65 209.856,154.316 211.5,153.5 Z"/></g>
<g><path style="opacity:1" fill="#add2f6" d="M 153.5,158.5 C 153.5,161.5 153.5,164.5 153.5,167.5C 150.167,167.5 146.833,167.5 143.5,167.5C 146.287,166.523 149.287,166.19 152.5,166.5C 152.194,163.615 152.527,160.948 153.5,158.5 Z"/></g>
<g><path style="opacity:1" fill="#fefefe" d="M 460.5,167.5 C 460.5,176.167 460.5,184.833 460.5,193.5C 396.833,193.5 333.167,193.5 269.5,193.5C 269.5,184.833 269.5,176.167 269.5,167.5C 333.167,167.5 396.833,167.5 460.5,167.5 Z"/></g>
<g><path style="opacity:1" fill="#848484" d="M 460.5,167.5 C 396.833,167.5 333.167,167.5 269.5,167.5C 269.5,176.167 269.5,184.833 269.5,193.5C 333.167,193.5 396.833,193.5 460.5,193.5C 396.669,194.499 332.669,194.832 268.5,194.5C 268.5,185.167 268.5,175.833 268.5,166.5C 332.669,166.168 396.669,166.501 460.5,167.5 Z"/></g>
<g><path style="opacity:1" fill="#c66381" d="M 269.5,208.5 C 269.5,208.167 269.5,207.833 269.5,207.5C 333.167,207.5 396.833,207.5 460.5,207.5C 460.5,216.5 460.5,225.5 460.5,234.5C 460.167,234.5 459.833,234.5 459.5,234.5C 459.5,225.833 459.5,217.167 459.5,208.5C 396.167,208.5 332.833,208.5 269.5,208.5 Z"/></g>
<g><path style="opacity:1" fill="#f8fbfe" d="M 102.5,207.5 C 105.862,207.07 108.695,208.07 111,210.5C 112.337,214.026 112.837,217.692 112.5,221.5C 115.518,221.335 118.518,221.502 121.5,222C 125.292,224.053 126.458,227.219 125,231.5C 121.613,235.039 117.447,236.372 112.5,235.5C 112.816,238.978 112.316,242.312 111,245.5C 107.685,249.105 104.018,249.439 100,246.5C 98.6632,242.974 98.1632,239.308 98.5,235.5C 91.2752,237.392 86.6086,234.892 84.5,228C 84.99,225.497 86.3234,223.497 88.5,222C 91.8168,221.502 95.1501,221.335 98.5,221.5C 97.4913,216.001 98.8246,211.335 102.5,207.5 Z"/></g>
<g><path style="opacity:1" fill="#fcfdfe" d="M 175.5,234.5 C 172.5,234.5 169.5,234.5 166.5,234.5C 166.5,237.5 166.5,240.5 166.5,243.5C 164.61,247.942 161.277,249.442 156.5,248C 154.859,246.871 153.859,245.371 153.5,243.5C 153.5,240.5 153.5,237.5 153.5,234.5C 150.5,234.5 147.5,234.5 144.5,234.5C 139.527,232.188 138.36,228.521 141,223.5C 144.922,221.688 149.089,221.021 153.5,221.5C 153.021,217.089 153.688,212.922 155.5,209C 159.78,206.523 163.28,207.356 166,211.5C 166.498,214.817 166.665,218.15 166.5,221.5C 171.849,220.461 176.349,221.795 180,225.5C 181.122,229.923 179.622,232.923 175.5,234.5 Z"/></g>
<g><path style="opacity:1" fill="#f9fcfe" d="M 212.5,207.5 C 220.92,208.407 223.92,213.074 221.5,221.5C 224.518,221.335 227.518,221.502 230.5,222C 235.778,226.158 235.778,230.491 230.5,235C 227.518,235.498 224.518,235.665 221.5,235.5C 223.32,242.34 220.987,246.673 214.5,248.5C 212.088,248.594 210.255,247.594 209,245.5C 207.684,242.312 207.184,238.978 207.5,235.5C 198.344,237.168 194.177,233.501 195,224.5C 195.833,223.667 196.667,222.833 197.5,222C 200.817,221.502 204.15,221.335 207.5,221.5C 206.302,215.602 207.968,210.935 212.5,207.5 Z"/></g>
<g><path style="opacity:1" fill="#f87da2" d="M 269.5,208.5 C 332.833,208.5 396.167,208.5 459.5,208.5C 459.5,217.167 459.5,225.833 459.5,234.5C 396.167,234.5 332.833,234.5 269.5,234.5C 269.5,225.833 269.5,217.167 269.5,208.5 Z"/></g>
<g><path style="opacity:1" fill="#7f4053" d="M 269.5,207.5 C 269.5,207.833 269.5,208.167 269.5,208.5C 269.5,217.167 269.5,225.833 269.5,234.5C 332.833,234.5 396.167,234.5 459.5,234.5C 459.833,234.5 460.167,234.5 460.5,234.5C 396.669,235.499 332.669,235.832 268.5,235.5C 268.173,225.985 268.506,216.652 269.5,207.5 Z"/></g>
<g><path style="opacity:1" fill="#87bff2" d="M 144.5,234.5 C 147.5,234.5 150.5,234.5 153.5,234.5C 153.5,237.5 153.5,240.5 153.5,243.5C 152.527,241.052 152.194,238.385 152.5,235.5C 149.615,235.806 146.948,235.473 144.5,234.5 Z"/></g>
<g><path style="opacity:1" fill="#73b4f0" d="M 175.5,234.5 C 173.052,235.473 170.385,235.806 167.5,235.5C 167.806,238.385 167.473,241.052 166.5,243.5C 166.5,240.5 166.5,237.5 166.5,234.5C 169.5,234.5 172.5,234.5 175.5,234.5 Z"/></g>
<g><path style="opacity:1" fill="#afafaf" d="M 269.5,249.5 C 332.998,248.501 396.664,248.168 460.5,248.5C 460.5,257.833 460.5,267.167 460.5,276.5C 396.664,276.832 332.998,276.499 269.5,275.5C 332.833,275.5 396.167,275.5 459.5,275.5C 459.5,266.833 459.5,258.167 459.5,249.5C 396.167,249.5 332.833,249.5 269.5,249.5 Z"/></g>
<g><path style="opacity:1" fill="#fefffe" d="M 269.5,249.5 C 332.833,249.5 396.167,249.5 459.5,249.5C 459.5,258.167 459.5,266.833 459.5,275.5C 396.167,275.5 332.833,275.5 269.5,275.5C 269.5,266.833 269.5,258.167 269.5,249.5 Z"/></g>
<g><path style="opacity:1" fill="#af5772" d="M 64.5,290.5 C 196.332,289.5 328.332,289.167 460.5,289.5C 460.5,298.833 460.5,308.167 460.5,317.5C 328.332,317.833 196.332,317.5 64.5,316.5C 196.167,316.5 327.833,316.5 459.5,316.5C 459.5,307.833 459.5,299.167 459.5,290.5C 327.833,290.5 196.167,290.5 64.5,290.5 Z"/></g>
<g><path style="opacity:1" fill="#f87da2" d="M 64.5,290.5 C 196.167,290.5 327.833,290.5 459.5,290.5C 459.5,299.167 459.5,307.833 459.5,316.5C 327.833,316.5 196.167,316.5 64.5,316.5C 64.5,307.833 64.5,299.167 64.5,290.5 Z"/></g>
<g><path style="opacity:1" fill="#ebebeb" d="M 64.5,331.5 C 196.332,330.5 328.332,330.167 460.5,330.5C 460.827,339.682 460.493,348.682 459.5,357.5C 459.5,348.833 459.5,340.167 459.5,331.5C 327.833,331.5 196.167,331.5 64.5,331.5 Z"/></g>
<g><path style="opacity:1" fill="#fefffe" d="M 64.5,331.5 C 196.167,331.5 327.833,331.5 459.5,331.5C 459.5,340.167 459.5,348.833 459.5,357.5C 327.833,357.5 196.167,357.5 64.5,357.5C 64.5,348.833 64.5,340.167 64.5,331.5 Z"/></g>
<g><path style="opacity:1" fill="#e57396" d="M 64.5,372.5 C 196.332,371.5 328.332,371.167 460.5,371.5C 460.827,380.682 460.493,389.682 459.5,398.5C 459.5,389.833 459.5,381.167 459.5,372.5C 327.833,372.5 196.167,372.5 64.5,372.5 Z"/></g>
<g><path style="opacity:1" fill="#f87da2" d="M 64.5,372.5 C 196.167,372.5 327.833,372.5 459.5,372.5C 459.5,381.167 459.5,389.833 459.5,398.5C 327.833,398.5 196.167,398.5 64.5,398.5C 64.5,389.833 64.5,381.167 64.5,372.5 Z"/></g>
</svg>
