<?xml version="1.0" standalone="no"?>
<!DOCTYPE svg PUBLIC "-//W3C//DTD SVG 20010904//EN"
 "http://www.w3.org/TR/2001/REC-SVG-20010904/DTD/svg10.dtd">
<svg version="1.0" xmlns="http://www.w3.org/2000/svg"
 width="512.000000pt" height="512.000000pt" viewBox="0 0 512.000000 512.000000"
 preserveAspectRatio="xMidYMid meet">

<g transform="translate(0.000000,512.000000) scale(0.100000,-0.100000)"
fill="#000000" stroke="none">
<path d="M2485 4791 c-92 -24 -173 -90 -215 -176 l-25 -50 -3 -935 -2 -934
-223 221 c-261 260 -286 277 -412 277 -95 1 -168 -27 -230 -89 -61 -62 -90
-135 -90 -230 1 -138 -6 -129 578 -712 402 -400 523 -515 562 -534 71 -34 199
-34 270 0 39 19 161 134 563 535 457 455 516 518 545 576 80 162 13 351 -152
429 -46 21 -70 26 -136 25 -126 0 -151 -17 -412 -277 l-222 -221 -3 935 -3
934 -34 63 c-57 105 -144 160 -260 167 -36 2 -79 1 -96 -4z"/>
<path d="M245 2231 c-92 -24 -173 -90 -215 -176 l-25 -50 0 -725 0 -725 25
-50 c31 -64 91 -124 155 -155 l50 -25 2325 0 2325 0 51 27 c76 40 107 70 145
140 l34 63 0 725 0 725 -25 50 c-31 64 -91 124 -155 155 -41 20 -65 25 -135
25 -70 0 -94 -5 -135 -25 -64 -31 -124 -91 -155 -155 l-25 -50 -3 -522 -3
-523 -1919 0 -1919 0 -3 523 -3 522 -34 63 c-57 105 -144 160 -260 167 -36 2
-79 1 -96 -4z"/>
</g>
</svg>
