<?xml version="1.0" encoding="UTF-8"?>
<!DOCTYPE svg PUBLIC "-//W3C//DTD SVG 1.1//EN" "http://www.w3.org/Graphics/SVG/1.1/DTD/svg11.dtd">
<svg xmlns="http://www.w3.org/2000/svg" version="1.1" width="512px" height="512px" style="shape-rendering:geometricPrecision; text-rendering:geometricPrecision; image-rendering:optimizeQuality; fill-rule:evenodd; clip-rule:evenodd" xmlns:xlink="http://www.w3.org/1999/xlink">
<g><path style="opacity:0.984" fill="#fefffe" d="M 247.5,31.5 C 267.464,28.7174 280.631,36.7174 287,55.5C 287.333,117.167 287.667,178.833 288,240.5C 301.833,226.667 315.667,212.833 329.5,199C 341.363,190.631 354.03,189.298 367.5,195C 382.793,205.552 387.293,219.718 381,237.5C 379.729,240.433 378.062,243.099 376,245.5C 343.167,278.333 310.333,311.167 277.5,344C 266.447,351.946 254.447,353.612 241.5,349C 238.567,347.729 235.901,346.062 233.5,344C 200.667,311.167 167.833,278.333 135,245.5C 127.054,234.447 125.388,222.447 130,209.5C 138.132,194.688 150.632,188.854 167.5,192C 172.725,193.279 177.391,195.612 181.5,199C 195.333,212.833 209.167,226.667 223,240.5C 223.333,178.833 223.667,117.167 224,55.5C 227.349,42.9853 235.182,34.9853 247.5,31.5 Z"/></g>
<g><path style="opacity:0.997" fill="#fefffe" d="M 511.5,311.5 C 511.5,359.5 511.5,407.5 511.5,455.5C 508.015,467.818 500.015,475.651 487.5,479C 332.833,479.667 178.167,479.667 23.5,479C 10.9853,475.651 2.98533,467.818 -0.5,455.5C -0.5,407.5 -0.5,359.5 -0.5,311.5C 7.89311,290.142 23.2264,282.975 45.5,290C 54.5202,294.523 60.3535,301.69 63,311.5C 63.5,346.165 63.6667,380.832 63.5,415.5C 191.5,415.5 319.5,415.5 447.5,415.5C 447.333,380.832 447.5,346.165 448,311.5C 454.355,292.562 467.522,284.728 487.5,288C 500.015,291.349 508.015,299.182 511.5,311.5 Z"/></g>
</svg>
