<?xml version="1.0" encoding="UTF-8"?>
<!DOCTYPE svg PUBLIC "-//W3C//DTD SVG 1.1//EN" "http://www.w3.org/Graphics/SVG/1.1/DTD/svg11.dtd">
<svg xmlns="http://www.w3.org/2000/svg" version="1.1" width="512px" height="512px" style="shape-rendering:geometricPrecision; text-rendering:geometricPrecision; image-rendering:optimizeQuality; fill-rule:evenodd; clip-rule:evenodd" xmlns:xlink="http://www.w3.org/1999/xlink">
<g><path style="opacity:0.999" fill="#3c9aff" d="M 51.5,-0.5 C 187.5,-0.5 323.5,-0.5 459.5,-0.5C 487.167,6.5 504.5,23.8333 511.5,51.5C 511.5,187.5 511.5,323.5 511.5,459.5C 504.385,487.615 486.718,504.949 458.5,511.5C 323.167,511.5 187.833,511.5 52.5,511.5C 24.2818,504.949 6.61511,487.615 -0.5,459.5C -0.5,323.5 -0.5,187.5 -0.5,51.5C 6.5266,23.8067 23.8599,6.47339 51.5,-0.5 Z"/></g>
<g><path style="opacity:1" fill="#fefeff" d="M 95.5,53.5 C 113.623,51.5952 129.123,56.9285 142,69.5C 156.24,89.4274 155.906,109.094 141,128.5C 119.493,146.18 96.6601,148.013 72.5,134C 53.4868,116.001 50.3202,95.5005 63,72.5C 71.5845,62.1309 82.4179,55.7975 95.5,53.5 Z"/></g>
<g><path style="opacity:1" fill="#fefeff" d="M 348.5,171.5 C 413.434,171.926 448.934,204.593 455,269.5C 455.5,325.166 455.667,380.832 455.5,436.5C 426.833,436.5 398.167,436.5 369.5,436.5C 369.955,383.812 369.455,331.145 368,278.5C 361.999,247.519 343.499,235.352 312.5,242C 296.065,248.101 285.565,259.601 281,276.5C 279.531,329.805 279.031,383.138 279.5,436.5C 250.833,436.5 222.167,436.5 193.5,436.5C 193.5,350.167 193.5,263.833 193.5,177.5C 222.167,177.5 250.833,177.5 279.5,177.5C 279.333,189.505 279.5,201.505 280,213.5C 296.081,188.381 318.914,174.381 348.5,171.5 Z"/></g>
<g><path style="opacity:1" fill="#fefeff" d="M 60.5,177.5 C 89.1667,177.5 117.833,177.5 146.5,177.5C 146.5,263.833 146.5,350.167 146.5,436.5C 117.833,436.5 89.1667,436.5 60.5,436.5C 60.5,350.167 60.5,263.833 60.5,177.5 Z"/></g>
</svg>
