<?xml version="1.0" encoding="UTF-8"?>
<!DOCTYPE svg PUBLIC "-//W3C//DTD SVG 1.1//EN" "http://www.w3.org/Graphics/SVG/1.1/DTD/svg11.dtd">
<svg xmlns="http://www.w3.org/2000/svg" version="1.1" width="512px" height="512px" style="shape-rendering:geometricPrecision; text-rendering:geometricPrecision; image-rendering:optimizeQuality; fill-rule:evenodd; clip-rule:evenodd" xmlns:xlink="http://www.w3.org/1999/xlink">
<g><path style="opacity:0.999" fill="#2867b2" d="M 51.5,-0.5 C 187.5,-0.5 323.5,-0.5 459.5,-0.5C 487.167,6.5 504.5,23.8333 511.5,51.5C 511.5,187.5 511.5,323.5 511.5,459.5C 504.385,487.615 486.718,504.949 458.5,511.5C 323.167,511.5 187.833,511.5 52.5,511.5C 24.2818,504.949 6.61511,487.615 -0.5,459.5C -0.5,323.5 -0.5,187.5 -0.5,51.5C 6.5266,23.8067 23.8599,6.47339 51.5,-0.5 Z"/></g>
<g><path style="opacity:1" fill="#fdfefe" d="M 95.5,53.5 C 109.066,52.3715 121.733,55.2048 133.5,62C 148.164,73.6429 153.997,88.8096 151,107.5C 146.719,124.45 136.219,135.617 119.5,141C 98.3523,146.674 80.1857,141.841 65,126.5C 52.9155,108.341 52.5822,90.0078 64,71.5C 72.4221,61.71 82.9221,55.71 95.5,53.5 Z"/></g>
<g><path style="opacity:1" fill="#fefefe" d="M 455.5,435.5 C 427.167,435.5 398.833,435.5 370.5,435.5C 370.832,387.33 370.499,339.33 369.5,291.5C 369.683,277.552 365.849,264.886 358,253.5C 345.929,241.258 331.429,237.091 314.5,241C 295.974,247.526 284.474,260.36 280,279.5C 279.5,331.499 279.333,383.499 279.5,435.5C 251.167,435.5 222.833,435.5 194.5,435.5C 194.5,406.167 194.5,376.833 194.5,347.5C 194.5,291.167 194.5,234.833 194.5,178.5C 222.833,178.5 251.167,178.5 279.5,178.5C 279.333,190.171 279.5,201.838 280,213.5C 302.2,180.827 333.033,167.327 372.5,173C 416.044,181.21 442.544,207.043 452,250.5C 453.186,256.803 454.186,263.136 455,269.5C 455.5,324.832 455.667,380.166 455.5,435.5 Z"/></g>
<g><path style="opacity:1" fill="#fefefe" d="M 60.5,178.5 C 89.1667,178.5 117.833,178.5 146.5,178.5C 146.5,264.5 146.5,350.5 146.5,436.5C 117.833,436.5 89.1667,436.5 60.5,436.5C 60.5,350.5 60.5,264.5 60.5,178.5 Z"/></g>
<g><path style="opacity:1" fill="#6d98ca" d="M 279.5,178.5 C 251.167,178.5 222.833,178.5 194.5,178.5C 194.5,234.833 194.5,291.167 194.5,347.5C 194.167,347.5 193.833,347.5 193.5,347.5C 193.5,290.833 193.5,234.167 193.5,177.5C 222.338,177.169 251.005,177.502 279.5,178.5 Z"/></g>
<g><path style="opacity:1" fill="#bfd2e8" d="M 369.5,291.5 C 370.499,339.33 370.832,387.33 370.5,435.5C 398.833,435.5 427.167,435.5 455.5,435.5C 427.005,436.498 398.338,436.831 369.5,436.5C 369.5,388.167 369.5,339.833 369.5,291.5 Z"/></g>
<g><path style="opacity:1" fill="#a9c2e0" d="M 193.5,347.5 C 193.833,347.5 194.167,347.5 194.5,347.5C 194.5,376.833 194.5,406.167 194.5,435.5C 222.833,435.5 251.167,435.5 279.5,435.5C 251.005,436.498 222.338,436.831 193.5,436.5C 193.5,406.833 193.5,377.167 193.5,347.5 Z"/></g>
</svg>
