<?xml version="1.0" standalone="no"?>
<!DOCTYPE svg PUBLIC "-//W3C//DTD SVG 20010904//EN"
 "http://www.w3.org/TR/2001/REC-SVG-20010904/DTD/svg10.dtd">
<svg version="1.0" xmlns="http://www.w3.org/2000/svg"
 width="448.000000pt" height="448.000000pt" viewBox="0 0 448.000000 448.000000"
 preserveAspectRatio="xMidYMid meet">

<g transform="translate(0.000000,448.000000) scale(0.100000,-0.100000)"
fill="#000000" stroke="none">
<path d="M590 4184 c-145 -39 -257 -153 -295 -300 -14 -54 -15 -242 -13 -1670
l3 -1609 23 -55 c46 -113 129 -196 242 -242 l55 -23 1635 0 1635 0 55 23 c113
46 196 129 242 242 l23 55 0 1635 0 1635 -23 55 c-46 113 -129 196 -242 242
l-55 23 -1615 2 c-1398 2 -1622 0 -1670 -13z m1935 -574 c600 -127 1029 -565
1131 -1155 21 -116 14 -422 -11 -535 -95 -433 -358 -789 -726 -984 -96 -52
-209 -96 -242 -96 -13 0 -32 6 -43 14 -18 14 -19 32 -24 328 -6 295 -7 316
-29 371 -12 31 -33 70 -46 85 l-24 28 99 13 c305 38 455 139 527 356 24 72 27
95 27 235 1 144 -1 159 -24 210 -13 30 -44 79 -68 108 l-44 54 12 65 c15 80 8
221 -15 286 -17 47 -17 47 -61 47 -58 0 -177 -47 -279 -109 -69 -42 -83 -47
-110 -39 -168 49 -491 49 -660 0 -27 -8 -41 -3 -118 44 -109 66 -185 96 -258
102 l-56 4 -18 -48 c-23 -66 -31 -206 -15 -287 l12 -64 -41 -54 c-60 -78 -82
-146 -88 -264 -11 -209 50 -402 158 -499 89 -80 229 -131 417 -152 34 -3 62
-8 62 -10 0 -2 -13 -24 -29 -49 -16 -26 -35 -69 -42 -95 -11 -42 -18 -51 -48
-63 -150 -60 -279 -17 -380 126 -32 44 -75 91 -100 108 -111 74 -253 58 -159
-19 84 -69 127 -122 173 -216 55 -114 92 -149 185 -176 84 -24 159 -31 241
-22 l66 8 6 -171 c4 -94 3 -184 -2 -200 -4 -17 -19 -37 -34 -45 -35 -20 -91
-5 -232 64 -320 157 -576 433 -705 763 -152 388 -140 811 34 1178 201 424 598
707 1086 775 108 15 381 4 495 -20z m-1185 -1931 c0 -11 -27 -12 -34 0 -3 4
-3 11 0 14 8 8 34 -3 34 -14z m64 -54 c8 -21 -14 -30 -31 -12 -9 8 -12 20 -9
26 8 13 33 4 40 -14z m54 -83 c4 -24 -7 -29 -26 -10 -18 18 -15 40 6 36 9 -2
18 -13 20 -26z m70 -64 c20 -20 14 -40 -10 -36 -15 2 -24 11 -26 26 -4 24 16
30 36 10z m112 -79 c0 -23 -32 -26 -49 -5 -10 11 -8 16 5 24 24 13 44 4 44
-19z m228 -2 c3 -12 -3 -17 -21 -17 -31 0 -40 10 -25 27 15 18 42 12 46 -10z
m-124 7 c21 -8 20 -30 0 -38 -24 -9 -47 13 -33 30 13 16 12 16 33 8z"/>
</g>
</svg>
