<?xml version="1.0" encoding="UTF-8"?>
<!DOCTYPE svg PUBLIC "-//W3C//DTD SVG 1.1//EN" "http://www.w3.org/Graphics/SVG/1.1/DTD/svg11.dtd">
<svg xmlns="http://www.w3.org/2000/svg" version="1.1" width="448px" height="448px" style="shape-rendering:geometricPrecision; text-rendering:geometricPrecision; image-rendering:optimizeQuality; fill-rule:evenodd; clip-rule:evenodd" xmlns:xlink="http://www.w3.org/1999/xlink">
<g><path style="opacity:0.99" fill="#fefffe" d="M 60.5,27.5 C 169.167,27.3333 277.834,27.5 386.5,28C 404,32.1667 414.833,43 419,60.5C 419.667,169.167 419.667,277.833 419,386.5C 414.833,404 404,414.833 386.5,419C 277.833,419.667 169.167,419.667 60.5,419C 43,414.833 32.1667,404 28,386.5C 27.3333,277.833 27.3333,169.167 28,60.5C 32.3482,42.9858 43.1816,31.9858 60.5,27.5 Z M 216.5,83.5 C 274.426,83.5336 318.593,107.867 349,156.5C 374.205,208.108 371.872,258.441 342,307.5C 324.339,333.154 300.839,351.32 271.5,362C 267.013,363.378 263.513,362.212 261,358.5C 260.667,338.5 260.333,318.5 260,298.5C 259.033,292.251 256.533,286.751 252.5,282C 262.231,280.465 271.897,278.465 281.5,276C 301.805,269.589 313.305,255.756 316,234.5C 320.964,214.534 316.464,197.201 302.5,182.5C 306.711,169.347 306.211,156.347 301,143.5C 294.656,142.284 288.489,143.117 282.5,146C 274.581,149.54 267.081,153.706 260,158.5C 236,151.833 212,151.833 188,158.5C 178.039,151.603 167.205,146.437 155.5,143C 152.833,142.333 150.167,142.333 147.5,143C 141.827,155.909 141.161,169.075 145.5,182.5C 132.953,196.892 128.787,213.559 133,232.5C 135.17,254.037 146.336,268.537 166.5,276C 176.132,278.326 185.798,280.326 195.5,282C 193.877,284.08 192.377,286.246 191,288.5C 189.798,292.666 188.298,296.666 186.5,300.5C 175.321,305.202 164.654,304.369 154.5,298C 149.726,292.949 145.56,287.449 142,281.5C 136.326,276.747 129.826,273.747 122.5,272.5C 116.666,272.622 115.333,274.955 118.5,279.5C 129.935,287.447 137.768,298.114 142,311.5C 147.886,317.526 155.053,321.026 163.5,322C 171.523,322.657 179.523,322.49 187.5,321.5C 187.667,333.838 187.5,346.171 187,358.5C 185.982,361.683 183.815,363.016 180.5,362.5C 132.388,346.553 100.888,314.219 86,265.5C 71.7014,208.759 85.2014,159.926 126.5,119C 152.513,97.0514 182.513,85.218 216.5,83.5 Z M 130.5,279.5 C 131.497,278.287 132.497,278.454 133.5,280C 132.423,280.47 131.423,280.303 130.5,279.5 Z M 136.5,283.5 C 137.995,283.415 138.995,284.081 139.5,285.5C 137.604,286.639 136.604,285.973 136.5,283.5 Z M 142.5,290.5 C 145.085,291.465 145.585,292.799 144,294.5C 141.971,293.486 141.471,292.153 142.5,290.5 Z M 148.5,299.5 C 150.681,299.284 152.347,300.117 153.5,302C 150.783,303.839 149.116,303.006 148.5,299.5 Z M 159.5,305.5 C 161.346,305.222 162.68,305.889 163.5,307.5C 162.277,308.614 160.944,308.781 159.5,308C 158.402,307.23 158.402,306.397 159.5,305.5 Z M 183.5,305.5 C 187.458,306.798 187.458,308.131 183.5,309.5C 180.875,308.135 180.875,306.802 183.5,305.5 Z M 171.5,307.5 C 175.999,307.935 176.332,308.935 172.5,310.5C 170.197,310.124 169.863,309.124 171.5,307.5 Z"/></g>
</svg>
