<?xml version="1.0" encoding="UTF-8"?>
<!DOCTYPE svg PUBLIC "-//W3C//DTD SVG 1.1//EN" "http://www.w3.org/Graphics/SVG/1.1/DTD/svg11.dtd">
<svg xmlns="http://www.w3.org/2000/svg" version="1.1" width="256px" height="256px" style="shape-rendering:geometricPrecision; text-rendering:geometricPrecision; image-rendering:optimizeQuality; fill-rule:evenodd; clip-rule:evenodd" xmlns:xlink="http://www.w3.org/1999/xlink">
<g><path style="opacity:0.924" fill="#fefffe" d="M 118.5,0.5 C 124.5,0.5 130.5,0.5 136.5,0.5C 136.5,15.5 136.5,30.5 136.5,45.5C 130.5,45.5 124.5,45.5 118.5,45.5C 118.5,30.5 118.5,15.5 118.5,0.5 Z"/></g>
<g><path style="opacity:0.922" fill="#fefffe" d="M 42.5,31.5 C 54.0934,41.4248 65.0934,52.0914 75.5,63.5C 71.8333,67.8333 67.8333,71.8333 63.5,75.5C 52.5,65.1667 41.8333,54.5 31.5,43.5C 35.1886,39.4799 38.8553,35.4799 42.5,31.5 Z"/></g>
<g><path style="opacity:0.974" fill="#fefffe" d="M 210.5,31.5 C 214.964,35.4632 219.298,39.6298 223.5,44C 164.167,103.333 104.833,162.667 45.5,222C 44.5,222.667 43.5,222.667 42.5,222C 38.8333,218.333 35.1667,214.667 31.5,211C 46.1667,196.333 60.8333,181.667 75.5,167C 57.2121,138.349 58.3788,110.516 79,83.5C 97.5499,64.6522 119.717,58.4855 145.5,65C 153.058,67.4456 160.058,70.9456 166.5,75.5C 181.521,61.1457 196.188,46.479 210.5,31.5 Z"/></g>
<g><path style="opacity:0.924" fill="#fefffe" d="M 0.5,118.5 C 15.5,118.5 30.5,118.5 45.5,118.5C 45.5,124.5 45.5,130.5 45.5,136.5C 30.5,136.5 15.5,136.5 0.5,136.5C 0.5,130.5 0.5,124.5 0.5,118.5 Z"/></g>
<g><path style="opacity:0.904" fill="#fefffe" d="M 208.5,118.5 C 223.833,118.5 239.167,118.5 254.5,118.5C 254.5,124.5 254.5,130.5 254.5,136.5C 239.167,136.5 223.833,136.5 208.5,136.5C 208.5,130.5 208.5,124.5 208.5,118.5 Z"/></g>
<g><path style="opacity:0.921" fill="#fefffe" d="M 190.5,178.5 C 201.632,189.131 212.632,199.965 223.5,211C 219.333,215.167 215.167,219.333 211,223.5C 200.167,212.667 189.333,201.833 178.5,191C 182.704,186.964 186.704,182.798 190.5,178.5 Z"/></g>
<g><path style="opacity:0.904" fill="#fefffe" d="M 118.5,208.5 C 124.5,208.5 130.5,208.5 136.5,208.5C 136.5,223.833 136.5,239.167 136.5,254.5C 130.5,254.5 124.5,254.5 118.5,254.5C 118.5,239.167 118.5,223.833 118.5,208.5 Z"/></g>
</svg>
